<svg width="19" height="11" viewBox="0 0 19 11" fill="none" xmlns="http://www.w3.org/2000/svg">
<path fill-rule="evenodd" clip-rule="evenodd" d="M12.5721 0.218646C12.6473 0.149338 12.7368 0.0943499 12.8352 0.0568309C12.9337 0.0193119 13.0392 0 13.1458 0C13.2524 0 13.358 0.0193119 13.4564 0.0568309C13.5549 0.0943499 13.6443 0.149338 13.7196 0.218646L18.5819 4.68405C18.6574 4.75318 18.7173 4.83531 18.7581 4.92573C18.799 5.01614 18.82 5.11308 18.82 5.21097C18.82 5.30886 18.799 5.40579 18.7581 5.49621C18.7173 5.58663 18.6574 5.66875 18.5819 5.73789L13.7196 10.2033C13.5674 10.343 13.361 10.4215 13.1458 10.4215C12.9306 10.4215 12.7242 10.343 12.5721 10.2033C12.4199 10.0635 12.3344 9.87401 12.3344 9.67637C12.3344 9.47874 12.4199 9.2892 12.5721 9.14945L16.8623 5.21097L12.5721 1.27248C12.4966 1.20335 12.4367 1.12122 12.3959 1.0308C12.355 0.940388 12.334 0.843457 12.334 0.745564C12.334 0.647672 12.355 0.550741 12.3959 0.460323C12.4367 0.369906 12.4966 0.287779 12.5721 0.218646Z" fill="#8BC34A"/>
<path fill-rule="evenodd" clip-rule="evenodd" d="M0 5.05105C0 4.85365 0.0853807 4.66434 0.237359 4.52476C0.389338 4.38518 0.595464 4.30676 0.810394 4.30676H17.8287C18.0436 4.30676 18.2497 4.38518 18.4017 4.52476C18.5537 4.66434 18.6391 4.85365 18.6391 5.05105C18.6391 5.24844 18.5537 5.43775 18.4017 5.57734C18.2497 5.71692 18.0436 5.79533 17.8287 5.79533H0.810394C0.595464 5.79533 0.389338 5.71692 0.237359 5.57734C0.0853807 5.43775 0 5.24844 0 5.05105Z" fill="#8BC34A"/>
</svg>
