<svg width="189" height="40" viewBox="0 0 189 40" fill="none" xmlns="http://www.w3.org/2000/svg">
<path d="M23.0778 39.9583H20.8678V28.488C20.8678 23.4411 16.6602 19.3117 11.5177 19.3117C6.37508 19.3117 2.16753 23.4411 2.16753 28.488V40H0V28.488C0 22.2315 5.18507 17.1428 11.5602 17.1428C17.9352 17.1428 23.1203 22.2315 23.1203 28.488V39.9583H23.0778Z" fill="#231F20"/>
<path d="M189 39.9583H186.833V28.488C186.833 23.4411 182.625 19.3117 177.482 19.3117C172.34 19.3117 168.132 23.4411 168.132 28.488V40H165.965V28.488C165.965 22.2315 171.15 17.1428 177.525 17.1428C183.9 17.1428 189.085 22.2315 189.085 28.488V39.9583H189Z" fill="#231F20"/>
<path d="M48.6627 40C42.2876 40 37.1025 34.9114 37.1025 28.6549V17.1846H39.3126V28.6966C39.3126 33.7435 43.5201 37.8728 48.6627 37.8728C53.8053 37.8728 58.0128 33.7435 58.0128 28.6966V17.1846H60.2228V28.6966C60.2228 34.9531 55.0378 40 48.6627 40Z" fill="#231F20"/>
<path d="M140.549 37.7894C135.406 37.7894 131.241 33.7435 131.156 28.6966H152.152L152.024 27.5287C151.472 21.6476 146.542 17.2263 140.506 17.2263C134.131 17.2263 128.946 22.315 128.946 28.5715C128.946 34.828 134.131 39.9166 140.506 39.9166C144.884 39.9166 148.922 37.4557 150.877 33.5767H148.369C146.712 36.1627 143.737 37.7894 140.549 37.7894ZM140.549 19.3952C145.012 19.3952 148.752 22.3984 149.687 26.5694H131.411C132.389 22.4401 136.086 19.3952 140.549 19.3952Z" fill="#231F20"/>
<path d="M114.879 17.2681C114.794 17.2264 114.709 17.2264 114.624 17.2264C112.541 17.0178 110.331 17.4767 108.461 18.728C107.271 19.5204 106.336 20.5632 105.656 21.6894V17.1847H103.446V28.4047V31.6164V40.0001H105.656V31.6164V28.4047C105.656 27.4037 105.826 26.4443 106.124 25.5684C108.164 25.7353 110.289 25.2347 112.116 24.0251C114.454 22.4819 115.814 20.0627 116.111 17.4767C115.729 17.3932 115.304 17.3098 114.879 17.2681Z" fill="url(#paint0_linear)"/>
<path d="M80.3257 28.7383V22.0229C80.3257 21.5224 80.2832 19.7289 81.2182 19.7289C83.1307 19.7289 85.0858 19.3118 86.8283 18.1856C89.1658 16.6423 90.5258 14.2232 90.8233 11.6371C88.2733 10.9698 85.5108 11.3452 83.1732 12.8884C81.9832 13.6809 81.0057 14.7237 80.3257 15.8916V0H78.1157V14.3066C77.5632 13.4724 76.8407 12.7633 75.9057 12.3045C74.2906 11.512 72.5056 11.4703 70.9756 12.0959C71.3581 13.6809 72.4206 15.0991 74.0356 15.9333C75.0131 16.4338 76.0757 16.5589 77.1382 16.5589C78.2007 16.5589 78.1582 17.9771 78.1582 18.5193V28.78C78.1582 34.9531 83.2582 39.9583 89.5483 39.9583V37.7894C84.4483 37.7894 80.3257 33.7435 80.3257 28.7383Z" fill="url(#paint1_linear)"/>
<defs>
<linearGradient id="paint0_linear" x1="109.827" y1="39.8552" x2="109.827" y2="19.3475" gradientUnits="userSpaceOnUse">
<stop offset="0.1807" stop-color="#231F20"/>
<stop offset="0.8061" stop-color="#8BC53F"/>
</linearGradient>
<linearGradient id="paint1_linear" x1="80.8889" y1="39.8551" x2="80.8889" y2="19.3474" gradientUnits="userSpaceOnUse">
<stop offset="0.1807" stop-color="#231F20"/>
<stop offset="0.8061" stop-color="#8BC53F"/>
</linearGradient>
</defs>
</svg>
