<svg width="42" height="42" viewBox="0 0 42 42" fill="none" xmlns="http://www.w3.org/2000/svg">
<g opacity="0.8" clip-path="url(#clip0)">
<path d="M40.5216 24.3127C41.7746 13.7655 39.9196 7.10673 36.5736 4.09498L36.5754 4.09323C31.1749 -1.05002 12.9364 -1.81127 6.47538 4.32423C3.57388 7.32548 2.55188 11.7302 2.43988 17.1832C2.32788 22.638 2.19488 32.8562 11.7166 35.6282H11.7254L11.7166 39.8615C11.7166 39.8615 11.6519 41.5765 12.7474 41.9212C14.0004 42.3272 14.5674 41.531 18.4646 36.876C24.9816 37.4412 29.9866 36.1462 30.5554 35.9572C31.8714 35.5162 39.3176 34.531 40.5216 24.3127ZM19.1069 33.8975C19.1069 33.8975 14.9821 39.0407 13.6994 40.376C13.2794 40.81 12.8191 40.7697 12.8261 39.9087C12.8261 39.3435 12.8576 32.8807 12.8576 32.8807C4.78488 30.5672 5.26088 21.8662 5.34838 17.3145C5.43588 12.761 6.26888 9.03173 8.72588 6.52048C14.3941 1.20573 30.3839 2.39398 34.4579 6.22298C39.4384 10.6382 37.6656 23.1122 37.6761 23.5375C36.6524 32.067 30.6184 32.6077 29.5089 32.977C29.0346 33.1345 24.6334 34.2667 19.1069 33.8975Z" fill="#8BC53F"/>
<path d="M21.3881 7.51965C20.7144 7.51965 20.7144 8.56965 21.3881 8.5784C26.6154 8.61865 30.9204 12.2622 30.9676 18.9454C30.9676 19.6507 32.0001 19.6419 31.9914 18.9367H31.9896C31.9336 11.7354 27.2331 7.5599 21.3881 7.51965Z" fill="#8BC53F"/>
<path d="M28.2646 17.8378C28.2489 18.5343 29.2796 18.5675 29.2884 17.8623C29.3741 13.8915 26.9259 10.6208 22.3251 10.276C21.6514 10.227 21.5814 11.2858 22.2534 11.3348C26.2434 11.6375 28.3451 14.3605 28.2646 17.8378Z" fill="#8BC53F"/>
<path d="M27.1619 22.3544C26.2974 21.8539 25.4171 22.1654 25.0531 22.6572L24.2919 23.6424C23.9051 24.1429 23.1824 24.0764 23.1824 24.0764C17.9079 22.6817 16.4974 17.1622 16.4974 17.1622C16.4974 17.1622 16.4326 16.4149 16.9156 16.0142L17.8676 15.2267C18.3436 14.8487 18.6446 13.9387 18.1599 13.0444C16.8649 10.7047 15.9951 9.89794 15.5524 9.27844C15.0869 8.69569 14.3869 8.56444 13.6589 8.95819H13.6431C12.1294 9.84369 10.4721 11.5009 11.0024 13.2072C11.9071 15.0062 13.5696 20.7409 18.8686 25.0739C21.3589 27.1232 25.2999 29.2232 26.9729 29.7079L26.9886 29.7324C28.6371 30.2819 30.2401 28.5599 31.0959 27.0007V26.9884C31.4756 26.2342 31.3496 25.5202 30.7949 25.0529C29.8114 24.0939 28.3274 23.0352 27.1619 22.3544Z" fill="#8BC53F"/>
<path d="M23.0454 14.1819C24.7271 14.2799 25.5426 15.1584 25.6301 16.9627C25.6616 17.6679 26.6854 17.6189 26.6539 16.9137C26.5419 14.5582 25.3134 13.2457 23.1014 13.1232C22.4276 13.0829 22.3646 14.1417 23.0454 14.1819Z" fill="#8BC53F"/>
</g>
<defs>
<clipPath id="clip0">
<rect width="42" height="42" fill="white"/>
</clipPath>
</defs>
</svg>
