<svg width="42" height="42" viewBox="0 0 42 42" fill="none" xmlns="http://www.w3.org/2000/svg">
<g opacity="0.8" clip-path="url(#clip0)">
<path d="M40.5216 24.3129C41.7746 13.7657 39.9196 7.10692 36.5736 4.09517L36.5754 4.09342C31.1749 -1.04983 12.9364 -1.81109 6.47538 4.32442C3.57388 7.32567 2.55188 11.7304 2.43988 17.1834C2.32788 22.6382 2.19488 32.8564 11.7166 35.6284H11.7254L11.7166 39.8617C11.7166 39.8617 11.6519 41.5767 12.7474 41.9214C14.0004 42.3274 14.5674 41.5312 18.4646 36.8762C24.9816 37.4414 29.9866 36.1464 30.5554 35.9574C31.8714 35.5164 39.3176 34.5312 40.5216 24.3129ZM19.1069 33.8977C19.1069 33.8977 14.9821 39.0409 13.6994 40.3762C13.2794 40.8102 12.8191 40.7699 12.8261 39.9089C12.8261 39.3437 12.8576 32.8809 12.8576 32.8809C4.78488 30.5674 5.26088 21.8664 5.34838 17.3147C5.43588 12.7612 6.26888 9.03192 8.72588 6.52067C14.3941 1.20592 30.3839 2.39417 34.4579 6.22317C39.4384 10.6384 37.6656 23.1124 37.6761 23.5377C36.6524 32.0672 30.6184 32.6079 29.5089 32.9772C29.0346 33.1347 24.6334 34.2669 19.1069 33.8977Z" fill="#8BC53F"/>
<path d="M21.3886 7.51953C20.7149 7.51953 20.7149 8.56953 21.3886 8.57828C26.6159 8.61853 30.9209 12.262 30.9681 18.9453C30.9681 19.6505 32.0006 19.6418 31.9919 18.9365H31.9901C31.9341 11.7353 27.2336 7.55978 21.3886 7.51953Z" fill="#8BC53F"/>
<path d="M28.2641 17.8378C28.2484 18.5343 29.2791 18.5676 29.2879 17.8623C29.3736 13.8916 26.9254 10.6208 22.3246 10.2761C21.6509 10.2271 21.5809 11.2858 22.2529 11.3348C26.2429 11.6376 28.3446 14.3606 28.2641 17.8378Z" fill="#8BC53F"/>
<path d="M27.1619 22.3547C26.2974 21.8542 25.4171 22.1657 25.0531 22.6574L24.2919 23.6427C23.9051 24.1432 23.1824 24.0767 23.1824 24.0767C17.9079 22.6819 16.4974 17.1624 16.4974 17.1624C16.4974 17.1624 16.4326 16.4152 16.9156 16.0144L17.8676 15.2269C18.3436 14.8489 18.6446 13.9389 18.1599 13.0447C16.8649 10.7049 15.9951 9.89818 15.5524 9.27868C15.0869 8.69593 14.3869 8.56468 13.6589 8.95843H13.6431C12.1294 9.84393 10.4721 11.5012 11.0024 13.2074C11.9071 15.0064 13.5696 20.7412 18.8686 25.0742C21.3589 27.1234 25.2999 29.2234 26.9729 29.7082L26.9886 29.7327C28.6371 30.2822 30.2401 28.5602 31.0959 27.0009V26.9887C31.4756 26.2344 31.3496 25.5204 30.7949 25.0532C29.8114 24.0942 28.3274 23.0354 27.1619 22.3547Z" fill="#8BC53F"/>
<path d="M23.0459 14.1819C24.7276 14.2799 25.5431 15.1584 25.6306 16.9627C25.6621 17.6679 26.6859 17.6189 26.6544 16.9137C26.5424 14.5582 25.3139 13.2457 23.1019 13.1232C22.4281 13.0829 22.3651 14.1417 23.0459 14.1819Z" fill="#8BC53F"/>
</g>
<defs>
<clipPath id="clip0">
<rect width="42" height="42" fill="white"/>
</clipPath>
</defs>
</svg>
