<svg width="42" height="42" viewBox="0 0 42 42" fill="none" xmlns="http://www.w3.org/2000/svg">
<g opacity="0.8" clip-path="url(#clip0)">
<path d="M40.5216 24.3127C41.7746 13.7654 39.9196 7.10667 36.5736 4.09492L36.5754 4.09317C31.1749 -1.05008 12.9364 -1.81133 6.47538 4.32417C3.57388 7.32542 2.55188 11.7302 2.43988 17.1832C2.32788 22.6379 2.19488 32.8562 11.7166 35.6282H11.7254L11.7166 39.8614C11.7166 39.8614 11.6519 41.5764 12.7474 41.9212C14.0004 42.3272 14.5674 41.5309 18.4646 36.8759C24.9816 37.4412 29.9866 36.1462 30.5554 35.9572C31.8714 35.5162 39.3176 34.5309 40.5216 24.3127Z" fill="#719C3F"/>
<path d="M21.3886 7.51953C20.7149 7.51953 20.7149 8.56953 21.3886 8.57828C26.6159 8.61853 30.9209 12.262 30.9681 18.9453C30.9681 19.6505 32.0006 19.6418 31.9919 18.9365H31.9901C31.9341 11.7353 27.2336 7.55978 21.3886 7.51953Z" fill="white"/>
<path d="M28.2641 17.8378C28.2484 18.5343 29.2791 18.5676 29.2879 17.8623C29.3736 13.8916 26.9254 10.6208 22.3246 10.2761C21.6509 10.2271 21.5809 11.2858 22.2529 11.3348C26.2429 11.6376 28.3446 14.3606 28.2641 17.8378Z" fill="white"/>
<path d="M27.1619 22.3544C26.2974 21.8539 25.4171 22.1654 25.0531 22.6572L24.2919 23.6424C23.9051 24.1429 23.1824 24.0764 23.1824 24.0764C17.9079 22.6817 16.4974 17.1622 16.4974 17.1622C16.4974 17.1622 16.4326 16.4149 16.9156 16.0142L17.8676 15.2267C18.3436 14.8487 18.6446 13.9387 18.1599 13.0444C16.8649 10.7047 15.9951 9.89794 15.5524 9.27844C15.0869 8.69569 14.3869 8.56444 13.6589 8.95819H13.6431C12.1294 9.84369 10.4721 11.5009 11.0024 13.2072C11.9071 15.0062 13.5696 20.7409 18.8686 25.0739C21.3589 27.1232 25.2999 29.2232 26.9729 29.7079L26.9886 29.7324C28.6371 30.2819 30.2401 28.5599 31.0959 27.0007V26.9884C31.4756 26.2342 31.3496 25.5202 30.7949 25.0529C29.8114 24.0939 28.3274 23.0352 27.1619 22.3544Z" fill="white"/>
<path d="M23.0459 14.1819C24.7276 14.2799 25.5431 15.1584 25.6306 16.9627C25.6621 17.6679 26.6859 17.6189 26.6544 16.9137C26.5424 14.5582 25.3139 13.2457 23.1019 13.1232C22.4281 13.0829 22.3651 14.1417 23.0459 14.1819Z" fill="white"/>
</g>
<defs>
<clipPath id="clip0">
<rect width="42" height="42" fill="white"/>
</clipPath>
</defs>
</svg>
