<?xml version="1.0" encoding="utf-8"?>
<!-- Generator: Adobe Illustrator 25.1.0, SVG Export Plug-In . SVG Version: 6.00 Build 0)  -->
<svg version="1.1" id="Layer_1" xmlns="http://www.w3.org/2000/svg" xmlns:xlink="http://www.w3.org/1999/xlink" x="0px" y="0px"
	 viewBox="0 0 301.5 301.6" style="enable-background:new 0 0 301.5 301.6;" xml:space="preserve">
<style type="text/css">
	.st0{fill:#8BC34A;}
</style>
<g>
	<path class="st0" d="M285.9,174.9c9-75.6-4.3-123.3-28.3-144.9l0,0C218.9-6.8,88.2-12.3,41.9,31.7C21.1,53.2,13.8,84.7,13,123.8
		c-0.8,39.1-1.8,112.3,66.5,132.2h0.1l-0.1,30.3c0,0-0.5,12.3,7.4,14.8c9,2.9,13-2.8,41-36.2c46.7,4.1,82.6-5.2,86.6-6.6
		C223.9,255.2,277.2,248.1,285.9,174.9L285.9,174.9z M132.4,243.6c0,0-29.6,36.9-38.7,46.4c-3,3.1-6.3,2.8-6.3-3.3
		c0-4.1,0.2-50.4,0.2-50.4c-57.8-16.6-54.4-78.9-53.8-111.5c0.6-32.6,6.6-59.4,24.2-77.3c40.6-38.1,155.2-29.6,184.4-2.1
		c35.7,31.6,23,121,23.1,124.1c-7.3,61.1-50.6,65-58.5,67.6C203.6,238.1,172,246.2,132.4,243.6L132.4,243.6z"/>
	<path class="st0" d="M148.8,54.6c-4.8,0-4.8,7.5,0,7.6c37.5,0.3,68.3,26.4,68.6,74.3c0,5.1,7.4,5,7.3-0.1h0
		C224.3,84.8,190.7,54.9,148.8,54.6L148.8,54.6z"/>
	<path class="st0" d="M198,128.5c-0.1,5,7.3,5.2,7.3,0.2c0.6-28.5-16.9-51.9-49.9-54.4c-4.8-0.4-5.3,7.2-0.5,7.6
		C183.6,84.1,198.6,103.6,198,128.5L198,128.5z"/>
	<path class="st0" d="M190.1,160.9c-6.2-3.6-12.5-1.4-15.1,2.2l-5.5,7.1c-2.8,3.6-8,3.1-8,3.1c-37.8-10-47.9-49.5-47.9-49.5
		s-0.5-5.4,3-8.2l6.8-5.6c3.4-2.7,5.6-9.2,2.1-15.6c-9.3-16.8-15.5-22.5-18.7-27c-3.3-4.2-8.4-5.1-13.6-2.3h-0.1
		c-10.8,6.3-22.7,18.2-18.9,30.4c6.5,12.9,18.4,54,56.4,85c17.8,14.7,46.1,29.7,58.1,33.2l0.1,0.2c11.8,3.9,23.3-8.4,29.4-19.6v-0.1
		c2.7-5.4,1.8-10.5-2.2-13.9C209.1,173.3,198.5,165.7,190.1,160.9L190.1,160.9z"/>
	<path class="st0" d="M160.6,102.3c12.1,0.7,17.9,7,18.5,19.9c0.2,5.1,7.6,4.7,7.3-0.4c-0.8-16.9-9.6-26.3-25.5-27.2
		C156.2,94.4,155.8,102,160.6,102.3L160.6,102.3z"/>
</g>
</svg>
