<svg width="42" height="42" viewBox="0 0 42 42" fill="none" xmlns="http://www.w3.org/2000/svg">
<g opacity="0.8">
<path fill-rule="evenodd" clip-rule="evenodd" d="M0 15.75C0 8.51288 7.06388 2.625 15.75 2.625C24.4361 2.625 31.5 8.51288 31.5 15.75C31.5 15.8207 31.4994 15.8909 31.4983 15.9606C37.4828 16.9354 42 21.1779 42 26.25C42 29.2556 40.3568 32.1169 37.5506 34.1014L39.2385 37.4745C39.4852 37.968 39.3986 38.5612 39.018 38.9603C38.766 39.2306 38.4169 39.375 38.0625 39.375C37.8893 39.375 37.7108 39.3382 37.5454 39.27L31.248 36.5689C24.1205 37.6523 17.8787 34.0473 16.1954 28.9853C15.9649 28.9951 15.7331 29 15.5 29C13.6687 29 11.9166 28.6956 10.3034 28.1402L5.76713 30.0825C5.59912 30.1534 5.42325 30.1875 5.25 30.1875C4.89563 30.1875 4.5465 30.0431 4.2945 29.7754C3.9165 29.3764 3.82987 28.7805 4.07662 28.2896L5.39962 25.6436C1.953 23.1236 0 19.5746 0 15.75Z" fill="#719C3F"/>
<path d="M10.5522 10.5H10.5259C9.80144 10.5 9.22656 11.088 9.22656 11.8125C9.22656 12.537 9.82769 13.125 10.5522 13.125C11.2767 13.125 11.8647 12.537 11.8647 11.8125C11.8647 11.088 11.2767 10.5 10.5522 10.5Z" fill="white"/>
<path d="M21.0527 10.5H21.0264C20.3019 10.5 19.7271 11.088 19.7271 11.8125C19.7271 12.537 20.3282 13.125 21.0527 13.125C21.7772 13.125 22.3652 12.537 22.3652 11.8125C22.3652 11.088 21.7772 10.5 21.0527 10.5Z" fill="white"/>
<path d="M24.9902 22.3125H24.9639C24.2368 22.3125 23.6646 22.9005 23.6646 23.625C23.6646 24.3495 24.2657 24.9375 24.9902 24.9375C25.7147 24.9375 26.3027 24.3495 26.3027 23.625C26.3027 22.9005 25.7147 22.3125 24.9902 22.3125Z" fill="white"/>
<path d="M32.8652 22.3125H32.8389C32.1144 22.3125 31.5396 22.9005 31.5396 23.625C31.5396 24.3495 32.1433 24.9375 32.8652 24.9375C33.5897 24.9375 34.1777 24.3495 34.1777 23.625C34.1777 22.9005 33.5897 22.3125 32.8652 22.3125Z" fill="white"/>
</g>
</svg>
