<?xml version="1.0" encoding="utf-8"?>
<!-- Generator: Adobe Illustrator 25.1.0, SVG Export Plug-In . SVG Version: 6.00 Build 0)  -->
<svg version="1.1" id="Layer_1" xmlns="http://www.w3.org/2000/svg" xmlns:xlink="http://www.w3.org/1999/xlink" x="0px" y="0px"
	 viewBox="0 0 301.5 301.6" style="enable-background:new 0 0 301.5 301.6;" xml:space="preserve">
<style type="text/css">
	.st0{fill:#8BC34A;}
</style>
<g>
	<g>
		<g>
			<path class="st0" d="M112.9,18.3c-62.2,0-112.8,42.2-112.8,94c0,27.4,14,52.8,38.7,70.9l-9.5,19c-1.8,3.5-1.1,7.8,1.6,10.6
				c1.8,1.9,4.3,3,6.8,3c1.2,0,2.5-0.2,3.7-0.8l33.2-14.2c15.6,4.7,32.2,6.1,48.9,5.2c5.2-0.3,9.2-4.7,8.9-9.9
				c-0.3-5.2-5.2-9.5-9.9-8.9c-15.6,0.8-31-0.6-45.4-5.4c-2.2-0.7-4.6-0.6-6.7,0.3l-12.9,5.5l1.7-3.4c2.2-4.3,0.7-9.6-3.4-12.2
				c-23.5-14.7-36.9-36.4-36.9-59.7c0-41.5,42.2-75.2,94-75.2s94,33.7,94,75.2c0,2.8-0.1,5.5-0.6,8.1c-0.9,5.1,2.5,10,7.6,10.9
				c5.2,1,10-2.5,10.9-7.6c0.7-3.7,0.9-7.5,0.9-11.4C225.7,60.5,175.1,18.3,112.9,18.3z"/>
		</g>
	</g>
	<g>
		<g>
			<path class="st0" d="M269.1,243.8c20.1-14.2,31.9-34.7,31.9-56.2c0-41.5-42.2-75.2-94-75.2s-94,33.7-94,75.2
				c0,45.9,51.1,83,111,73.9l45.1,19.3c1.2,0.5,2.5,0.8,3.7,0.8c2.5,0,5-1,6.8-3c2.7-2.9,3.3-7.1,1.6-10.6L269.1,243.8z
				 M252.2,232.2c-4.3,2.5-6,7.9-3.7,12.4l4.4,8.8l-24-10.3c-1.2-0.5-2.4-0.8-3.7-0.8c-0.5,0-1.1,0-1.6,0.1
				c-5.8,1-11.2,1.5-16.6,1.5c-41.5,0-75.2-25.3-75.2-56.4s33.7-56.4,75.2-56.4s75.2,25.3,75.2,56.4
				C282.1,205.1,271.2,221.4,252.2,232.2z"/>
		</g>
	</g>
	<g>
		<g>
			<path class="st0" d="M75.7,74.7h-0.2c-5.2,0-9.3,4.2-9.3,9.4s4.3,9.4,9.5,9.4s9.4-4.2,9.4-9.4S80.9,74.7,75.7,74.7z"/>
		</g>
	</g>
	<g>
		<g>
			<path class="st0" d="M150.9,74.7h-0.2c-5.2,0-9.3,4.2-9.3,9.4s4.3,9.4,9.5,9.4s9.4-4.2,9.4-9.4S156.1,74.7,150.9,74.7z"/>
		</g>
	</g>
	<g>
		<g>
			<path class="st0" d="M179.1,159.3h-0.2c-5.2,0-9.3,4.2-9.3,9.4s4.3,9.4,9.5,9.4s9.4-4.2,9.4-9.4S184.3,159.3,179.1,159.3z"/>
		</g>
	</g>
	<g>
		<g>
			<path class="st0" d="M235.5,159.3h-0.2c-5.2,0-9.3,4.2-9.3,9.4s4.3,9.4,9.5,9.4c5.2,0,9.4-4.2,9.4-9.4S240.7,159.3,235.5,159.3z"
				/>
		</g>
	</g>
</g>
</svg>
