<svg width="42" height="42" viewBox="0 0 42 42" fill="none" xmlns="http://www.w3.org/2000/svg">
<g opacity="0.8">
<path d="M15.75 2.625C7.06388 2.625 0 8.51288 0 15.75C0 19.5746 1.953 23.1236 5.39962 25.6436L4.07662 28.2896C3.82987 28.7805 3.9165 29.3764 4.2945 29.7754C4.5465 30.0431 4.89563 30.1875 5.25 30.1875C5.42325 30.1875 5.59912 30.1534 5.76713 30.0825L10.4081 28.0954C12.5842 28.7542 14.9047 28.9538 17.2331 28.8199C17.9576 28.7831 18.5141 28.1636 18.4748 27.4391C18.4354 26.712 17.7476 26.1187 17.094 26.2001C14.9205 26.3104 12.7627 26.1187 10.7572 25.4494C10.4528 25.3496 10.122 25.3654 9.82537 25.4888L8.02725 26.2605L8.2635 25.7854C8.56538 25.1816 8.358 24.444 7.78312 24.087C4.5045 22.0395 2.625 19.0024 2.625 15.75C2.625 9.95925 8.51287 5.25 15.75 5.25C22.9871 5.25 28.875 9.95925 28.875 15.75C28.875 16.1438 28.8566 16.5139 28.791 16.884C28.6624 17.598 29.1401 18.2805 29.8515 18.4065C30.576 18.5404 31.2454 18.06 31.374 17.346C31.4659 16.8236 31.5 16.3013 31.5 15.75C31.5 8.51288 24.4361 2.625 15.75 2.625Z" fill="#8BC53F"/>
<path d="M37.5506 34.1014C40.3568 32.1169 42 29.2556 42 26.25C42 20.4592 36.1121 15.75 28.875 15.75C21.6379 15.75 15.75 20.4592 15.75 26.25C15.75 32.6629 22.89 37.8394 31.248 36.5689L37.5454 39.27C37.7108 39.3382 37.8892 39.375 38.0625 39.375C38.4169 39.375 38.766 39.2306 39.018 38.9603C39.3986 38.5613 39.4853 37.968 39.2385 37.4745L37.5506 34.1014ZM35.196 32.4923C34.5923 32.8388 34.3639 33.5947 34.6736 34.2169L35.2853 35.4454L31.9305 34.0043C31.7677 33.936 31.5892 33.8992 31.4134 33.8992C31.3372 33.8992 31.2638 33.9045 31.1903 33.9176C30.3844 34.0594 29.6257 34.125 28.875 34.125C23.0842 34.125 18.375 30.5918 18.375 26.25C18.375 21.9082 23.0842 18.375 28.875 18.375C34.6658 18.375 39.375 21.9082 39.375 26.25C39.375 28.6965 37.8525 30.9724 35.196 32.4923Z" fill="#8BC53F"/>
<path d="M10.5522 10.5H10.5259C9.80144 10.5 9.22656 11.088 9.22656 11.8125C9.22656 12.537 9.82769 13.125 10.5522 13.125C11.2767 13.125 11.8647 12.537 11.8647 11.8125C11.8647 11.088 11.2767 10.5 10.5522 10.5Z" fill="#8BC53F"/>
<path d="M21.0527 10.5H21.0264C20.3019 10.5 19.7271 11.088 19.7271 11.8125C19.7271 12.537 20.3282 13.125 21.0527 13.125C21.7772 13.125 22.3652 12.537 22.3652 11.8125C22.3652 11.088 21.7772 10.5 21.0527 10.5Z" fill="#8BC53F"/>
<path d="M24.9902 22.3125H24.9639C24.2368 22.3125 23.6646 22.9005 23.6646 23.625C23.6646 24.3495 24.2657 24.9375 24.9902 24.9375C25.7147 24.9375 26.3027 24.3495 26.3027 23.625C26.3027 22.9005 25.7147 22.3125 24.9902 22.3125Z" fill="#8BC53F"/>
<path d="M32.8652 22.3125H32.8389C32.1144 22.3125 31.5396 22.9005 31.5396 23.625C31.5396 24.3495 32.1433 24.9375 32.8652 24.9375C33.5897 24.9375 34.1777 24.3495 34.1777 23.625C34.1777 22.9005 33.5897 22.3125 32.8652 22.3125Z" fill="#8BC53F"/>
</g>
</svg>
