<?xml version="1.0" encoding="utf-8"?>
<!-- Generator: Adobe Illustrator 25.1.0, SVG Export Plug-In . SVG Version: 6.00 Build 0)  -->
<svg version="1.1" id="Layer_1" xmlns="http://www.w3.org/2000/svg" xmlns:xlink="http://www.w3.org/1999/xlink" x="0px" y="0px"
	 viewBox="0 0 301.5 301.6" style="enable-background:new 0 0 301.5 301.6;" xml:space="preserve">
<style type="text/css">
	.st0{fill-rule:evenodd;clip-rule:evenodd;fill:#8BC34A;}
</style>
<g id="XMLID_1786_">
	<path id="XMLID_1788_" class="st0" d="M301.4,143.2C299.4,63.7,234,0,153.5,0C73.9,0,9.1,62.3,5.6,140.5c-0.1,2.1-0.1,4.3-0.1,6.4
		c0,27.8,7.8,53.7,21.2,75.9L0,301.6l82-26.1c21.2,11.6,45.6,18.3,71.5,18.3c81.8,0,148-65.8,148-146.9
		C301.5,145.6,301.5,144.4,301.4,143.2z M153.5,270.4c-25.3,0-48.8-7.5-68.5-20.4l-47.8,15.2l15.5-45.9
		C37.8,198.9,29,173.9,29,146.9c0-4,0.2-8,0.6-12C35.8,72.4,89,23.4,153.5,23.4c65.3,0,119,50.2,124,113.8c0.3,3.2,0.4,6.4,0.4,9.6
		C277.9,215,222.1,270.4,153.5,270.4z"/>
	<path id="XMLID_1787_" class="st0" d="M221.3,176.5c-3.7-1.8-21.5-10.5-24.8-11.7s-5.8-1.8-8.2,1.8s-9.4,11.7-11.5,14.1
		c-2.1,2.4-4.2,2.7-7.9,0.9c-3.6-1.8-15.3-5.5-29.2-17.9c-10.7-9.5-18.1-21.3-20.2-24.9c-2.1-3.6-0.2-5.5,1.6-7.3
		c1.7-1.7,3.6-4.2,5.5-6.3c0.5-0.6,0.9-1.2,1.3-1.7c0.8-1.3,1.5-2.6,2.3-4.3c1.2-2.4,0.6-4.5-0.3-6.3c-0.9-1.8-8.2-19.5-11.2-26.7
		s-6-6-8.2-6c-2.1,0-4.5-0.3-6.9-0.3s-6.4,0.9-9.7,4.5c-3.3,3.6-12.7,12.3-12.7,30.1c0,4.2,0.8,8.3,1.9,12.3
		c3.7,12.7,11.6,23.1,13,24.9c1.8,2.4,25.1,39.9,61.9,54.4c36.9,14.3,36.9,9.6,43.6,8.9c6.6-0.6,21.5-8.7,24.5-17.1
		c3.1-8.4,3.1-15.6,2.1-17.1C227.3,179.3,224.9,178.4,221.3,176.5z"/>
</g>
</svg>
