<svg width="42" height="42" viewBox="0 0 42 42" fill="none" xmlns="http://www.w3.org/2000/svg">
    <g opacity="0.8">
        <path fill-rule="evenodd" clip-rule="evenodd"
              d="M41.9861 19.9416C41.7075 8.87069 32.597 0 21.3831 0C10.2945 0 1.26766 8.67573 0.780099 19.5657C0.766169 19.8581 0.766169 20.1645 0.766169 20.4569C0.766169 24.3282 1.85274 27.935 3.7194 31.0265L0 42L11.4229 38.3654C14.3761 39.9808 17.7751 40.9138 21.3831 40.9138C32.7781 40.9138 42 31.7507 42 20.4569C42 20.2759 42 20.1088 41.9861 19.9416Z"
              fill="#8BC53F"/>
        <path fill-rule="evenodd" clip-rule="evenodd"
              d="M30.8279 24.579C30.3125 24.3283 27.8329 23.1168 27.3732 22.9497C26.9135 22.7825 26.5653 22.699 26.2309 23.2003C25.8966 23.7016 24.9215 24.8296 24.6289 25.1638C24.3364 25.4981 24.0439 25.5398 23.5284 25.2892C23.0269 25.0385 21.3971 24.5233 19.4608 22.7965C17.9702 21.4735 16.9394 19.8303 16.6468 19.329C16.3543 18.8276 16.619 18.563 16.8697 18.3124C17.1065 18.0756 17.3712 17.7275 17.6359 17.4351C17.7056 17.3515 17.7613 17.268 17.817 17.1983C17.9284 17.0173 18.026 16.8363 18.1374 16.5995C18.3046 16.2653 18.221 15.9729 18.0956 15.7222C17.9702 15.4715 16.9533 13.0067 16.5354 12.004C16.1175 11.0014 15.6996 11.1685 15.3931 11.1685C15.1006 11.1685 14.7662 11.1267 14.4319 11.1267C14.0976 11.1267 13.5404 11.252 13.0807 11.7534C12.621 12.2547 11.3115 13.4662 11.3115 15.945C11.3115 16.5299 11.423 17.1008 11.5762 17.6579C12.0916 19.4264 13.1921 20.8747 13.3871 21.1254C13.6379 21.4596 16.8837 26.6817 22.01 28.701C27.1503 30.6924 27.1503 30.0378 28.0837 29.9404C29.0031 29.8568 31.0787 28.7288 31.4966 27.5591C31.9284 26.3893 31.9284 25.3867 31.7891 25.1778C31.6638 24.9689 31.3294 24.8436 30.8279 24.579Z"
              fill="white"/>
    </g>
</svg>
